<svg width="15.000000" height="7.000000" viewBox="0 0 15 7" fill="none" xmlns="http://www.w3.org/2000/svg" xmlns:xlink="http://www.w3.org/1999/xlink">
	<desc>
			Created with Pixso.
	</desc>
	<path d="M0.957443 3.49999C0.957443 2.07218 2.17043 0.914528 3.66733 0.91304L3.66943 0.913101C3.67378 0.913239 3.68265 0.913582 3.69572 0.914406C3.72186 0.916069 3.76472 0.919685 3.82192 0.927475C3.93639 0.943069 4.10755 0.975304 4.3167 1.04179C4.73333 1.17422 5.30508 1.44379 5.8849 1.99672C6.07185 2.175 6.37495 2.175 6.5619 1.99672C6.74886 1.81844 6.74886 1.52938 6.5619 1.3511C5.86513 0.686638 5.16029 0.347511 4.61947 0.175598C4.34989 0.0899124 4.12211 0.0460587 3.95733 0.023613C3.87489 0.0123825 3.80805 0.00648499 3.7594 0.00338745C3.73507 0.00183868 3.71526 0.000991821 3.70029 0.000534058L3.68151 9.15527e-05L3.67491 1.52588e-05L3.67232 7.62939e-06L3.6712 0L3.67021 0C1.64321 0 0 1.56701 0 3.50001C0 5.433 1.64321 7 3.67021 7L3.67139 7L3.67283 7L3.67651 6.99997L3.68701 6.99984C3.6954 6.99969 3.70651 6.99943 3.72022 6.99895C3.74764 6.99799 3.78546 6.99617 3.8325 6.99269C3.92648 6.98574 4.05779 6.97216 4.2167 6.94558C4.53365 6.89255 4.96578 6.78688 5.43188 6.57522C6.3757 6.14662 7.43508 5.29222 7.95763 3.63402L7.95854 3.63119C8.39375 2.24777 9.24859 1.58117 9.97976 1.24914C10.3514 1.08036 10.6972 0.995819 10.9487 0.953743C11.0741 0.93277 11.1747 0.922569 11.2415 0.917633C11.2749 0.915161 11.2997 0.914017 11.3148 0.91349L11.3301 0.913071L11.3314 0.913055C12.8279 0.913864 14.041 2.0703 14.0426 3.49728L14.0425 3.49999C14.0425 4.92822 12.8289 6.08612 11.3314 6.08695L11.3306 6.08689C11.3262 6.08675 11.3173 6.08641 11.3043 6.08558C11.2781 6.08392 11.2353 6.08031 11.1781 6.07252C11.0636 6.05692 10.8924 6.02468 10.6833 5.9582C10.2667 5.82577 9.69492 5.5562 9.1151 5.00327C8.92815 4.82499 8.62503 4.82499 8.43808 5.00327C8.25113 5.18155 8.25113 5.47061 8.43808 5.64889C9.13486 6.31335 9.83971 6.65248 10.3805 6.82439C10.6501 6.91008 10.8779 6.95393 11.0427 6.97638C11.1251 6.98761 11.1919 6.99351 11.2406 6.9966C11.2649 6.99815 11.2847 6.999 11.2997 6.99946L11.3185 6.9999L11.3251 6.99997L11.3277 6.99999L11.3298 6.99999C13.3557 6.99999 14.9982 5.4347 15 3.50317L15 3.50001C15 1.56701 13.3568 0 11.3298 0L11.3286 1.52588e-05L11.3272 1.52588e-05L11.3235 3.8147e-05L11.313 0.000175476C11.3046 0.000320435 11.2935 0.000579834 11.2798 0.00106049C11.2524 0.00201416 11.2145 0.00384521 11.1675 0.00732422C11.0735 0.014267 10.9422 0.0278473 10.7833 0.0544357C10.4663 0.10746 10.0342 0.213135 9.56812 0.424789C8.62439 0.853348 7.56513 1.70762 7.04253 3.36549L7.04146 3.36882C6.60625 4.75224 5.75141 5.41884 5.02024 5.75087C4.64857 5.91965 4.30278 6.00419 4.05125 6.04627C3.92591 6.06724 3.82535 6.07744 3.7585 6.08238C3.72513 6.08485 3.70031 6.08599 3.68518 6.08652L3.66994 6.08694L3.66864 6.08696C2.17114 6.08615 0.957443 4.92823 0.957443 3.49999Z" fill-rule="evenodd" fill="#2ACBE8"/>
	<defs/>
</svg>
