<svg width="188.000000" height="92.000000" viewBox="0 0 188 92" fill="none" xmlns="http://www.w3.org/2000/svg" xmlns:xlink="http://www.w3.org/1999/xlink">
	<desc>
			Created with Pixso.
	</desc>
	<path d="M12 45.9999C12 27.2343 27.2028 12.0195 45.9638 12L45.9901 12.0008C46.0447 12.0025 46.1558 12.007 46.3196 12.0179C46.6473 12.0398 47.1846 12.0873 47.9014 12.1897C49.3362 12.3946 51.4813 12.8183 54.1026 13.6921C59.3244 15.4327 66.4903 18.9756 73.7573 26.2426C76.1004 28.5858 79.8994 28.5858 82.2426 26.2426C84.5857 23.8995 84.5857 20.1005 82.2426 17.7573C73.5096 9.02437 64.6756 4.56731 57.8973 2.3079C54.5186 1.18166 51.6638 0.605339 49.5985 0.310303C48.5654 0.162712 47.7276 0.0851898 47.1178 0.0445404C46.8129 0.0242081 46.5646 0.0130768 46.377 0.00702667L46.1416 0.00124359L46.0589 0.000244141L46.0264 5.34058e-05L46.0124 0L46 0C20.5949 0 0 20.595 0 46.0001C0 71.4051 20.5949 92 46 92L46.0147 92L46.0327 91.9999L46.0789 91.9996L46.2105 91.9978C46.3156 91.9959 46.455 91.9925 46.6268 91.9862C46.9704 91.9736 47.4445 91.9496 48.034 91.9039C49.2119 91.8126 50.8577 91.6341 52.8493 91.2847C56.8217 90.5878 62.2378 89.1989 68.0796 86.4172C79.9088 80.7842 93.1864 69.5549 99.7357 47.7614L99.747 47.7242C105.202 29.5421 115.916 20.7811 125.08 16.4173C129.738 14.1991 134.072 13.0879 137.224 12.5349C138.795 12.2593 140.056 12.1252 140.893 12.0603C141.312 12.0279 141.623 12.0128 141.812 12.0059L142.003 12.0004L142.02 12.0001C160.776 12.0108 175.981 27.2096 176 45.9643L176 45.9999C176 64.7709 160.788 79.9891 142.02 79.9999L142.01 79.9991C141.955 79.9974 141.844 79.9929 141.68 79.9819C141.353 79.9601 140.815 79.9126 140.098 79.8102C138.664 79.6052 136.519 79.1816 133.897 78.3078C128.676 76.5672 121.51 73.0243 114.243 65.7573C111.899 63.4141 108.1 63.4141 105.757 65.7573C103.414 68.1004 103.414 71.8994 105.757 74.2425C114.49 82.9755 123.324 87.4326 130.103 89.692C133.481 90.8182 136.336 91.3945 138.401 91.6896C139.435 91.8372 140.272 91.9147 140.882 91.9554C141.187 91.9757 141.435 91.9868 141.623 91.9929L141.858 91.9986L141.941 91.9996L141.973 91.9998L142 91.9999C167.391 91.9999 187.977 71.4275 188 46.0416L188 46.0001C188 20.595 167.405 0 142 0L141.985 0.000160217L141.967 0.000213623L141.921 0.000526428L141.789 0.00231171C141.684 0.00418854 141.545 0.00762939 141.373 0.0139236C141.03 0.0265121 140.555 0.0505142 139.966 0.0962143C138.788 0.187523 137.142 0.365997 135.151 0.715393C131.178 1.41232 125.762 2.8012 119.92 5.58297C108.092 11.2154 94.8163 22.443 88.2663 44.2322L88.253 44.276C82.7984 62.458 72.0843 71.2191 62.9204 75.5829C58.2621 77.8011 53.9282 78.9122 50.7757 79.4653C49.2047 79.7409 47.9443 79.8749 47.1066 79.9398C46.6882 79.9723 46.3772 79.9873 46.1876 79.9943L45.9967 79.9997L45.9803 80C27.2116 79.9894 12 64.771 12 45.9999Z" fill-rule="evenodd" fill="#2ACBE8"/>
	<defs/>
</svg>
